<svg height="496pt" viewBox="0 0 496 496" width="496pt" xmlns="http://www.w3.org/2000/svg"><path d="m496 107.886719v-39.773438l-17.136719-3.433593c-1.167969-3.542969-2.582031-6.984376-4.261719-10.304688l9.6875-14.535156-28.128906-28.128906-14.535156 9.6875c-3.320312-1.679688-6.761719-3.101563-10.304688-4.261719l-3.433593-17.136719h-39.78125l-3.433594 17.136719c-3.542969 1.167969-6.984375 2.582031-10.304687 4.261719l-14.527344-9.6875-10.144532 10.144531c-32.015624-14.449219-66.175781-21.855469-101.695312-21.855469-45.511719 0-89.433594 12.359375-128 35.679688v-11.679688h-48v112h.207031c-5.078125 6.703125-8.207031 14.960938-8.207031 24h-16v-160h-48v176h10.847656c-7.054687 23.273438-10.847656 47.40625-10.847656 72 0 90.558594 48.960938 173.167969 128 216.945312v15.054688c0 8.824219 7.175781 16 16 16h208c8.824219 0 16-7.175781 16-16v-15.054688c79.039062-43.777343 128-126.386718 128-216.945312 0-35.503906-7.40625-69.671875-21.847656-101.703125l10.136718-10.136719-9.6875-14.535156c1.679688-3.320312 3.101563-6.761719 4.261719-10.304688zm-248-91.886719c31.191406 0 61.273438 6.039062 89.609375 17.945312l-5.898437 5.894532 9.6875 14.535156c-1.679688 3.320312-3.101563 6.761719-4.261719 10.304688l-17.136719 3.433593v39.78125l17.136719 3.433594c1.167969 3.542969 2.582031 6.984375 4.261719 10.304687l-9.6875 14.535157 20.617187 20.617187c-.089844 1.070313-.328125 2.109375-.328125 3.214844v16c0 13.015625 6.34375 24.488281 16 31.792969v10.167969l-32.792969 9.367187c-6.0625 1.726563-11.238281 5.246094-15.207031 9.800781-3.96875-4.554687-9.144531-8.074218-15.207031-9.800781l-32.792969-9.359375v-10.167969c9.65625-7.3125 16-18.785156 16-31.792969v-16c0-22.054687-17.945312-40-40-40s-40 17.945313-40 40h-16v-88.007812h-48v88c0-16.359375-9.894531-30.414062-24-36.609375v-68.773437c38-25.210938 82.128906-38.617188 128-38.617188zm136 72c0-13.230469 10.769531-24 24-24s24 10.769531 24 24-10.769531 24-24 24-24-10.769531-24-24zm32 72v16c0 13.230469-10.769531 24-24 24s-24-10.769531-24-24v-16c0-13.230469 10.769531-24 24-24s24 10.769531 24 24zm40 190.71875c-4.703125 9.527344-10.039062 18.722656-16 27.511719v-114.230469h-16v56h-64v-56h-16v72h-16v-77.894531c0-7.105469 4.769531-13.433594 11.609375-15.386719l30.574219-8.734375c3.097656 7.3125 9.792968 14.015625 21.816406 14.015625s18.71875-6.703125 21.824219-14.015625l30.574219 8.734375c6.832031 1.953125 11.601562 8.28125 11.601562 15.386719zm-240 41.28125v16h-56c-8.824219 0-16-7.175781-16-16v-40h208v40c0 8.824219-7.175781 16-16 16h-56v-16zm48 16v16h-32v-16zm-192-88v-56h-16v114.230469c-5.960938-8.789063-11.296875-17.984375-16-27.511719v-92.613281c0-7.105469 4.769531-13.433594 11.609375-15.386719l30.574219-8.734375c3.097656 7.3125 9.792968 14.015625 21.816406 14.015625s18.71875-6.703125 21.824219-14.015625l30.574219 8.734375c6.832031 1.953125 11.601562 8.28125 11.601562 15.386719v77.894531h-16v-72h-16v56zm56-160v16c0 13.230469-10.769531 24-24 24s-24-10.769531-24-24v-16c0-13.230469 10.769531-24 24-24s24 10.769531 24 24zm48 0h-16v-72h16zm-32 16h64c0 13.015625 6.34375 24.488281 16 31.792969v10.167969l-32.792969 9.367187c-6.0625 1.726563-11.238281 5.246094-15.207031 9.800781-3.96875-4.554687-9.144531-8.074218-15.207031-9.800781l-32.792969-9.359375v-10.167969c9.65625-7.3125 16-18.785156 16-31.800781zm168 160h-8v-16c0-5.894531-3.238281-11-8-13.777344v-42.222656h-16v40h-64v-40h-16v42.222656c-4.761719 2.777344-8 7.882813-8 13.777344v16h-8v-77.894531c0-7.105469 4.769531-13.433594 11.609375-15.386719l30.574219-8.734375c3.097656 7.3125 9.792968 14.015625 21.816406 14.015625s18.71875-6.703125 21.824219-14.015625l30.574219 8.734375c6.832031 1.953125 11.601562 8.28125 11.601562 15.386719zm-104-16h80v16h-80zm48-96.097656c-.097656 3.699218-1.558594 8.097656-8 8.097656s-7.902344-4.398438-8-8.097656v-8.710938c2.585938.527344 5.265625.808594 8 .808594s5.414062-.28125 8-.808594zm-8-23.902344c-13.230469 0-24-10.769531-24-24v-16c0-13.230469 10.769531-24 24-24s24 10.769531 24 24v16c0 13.230469-10.769531 24-24 24zm-144 16c2.734375 0 5.414062-.28125 8-.808594v8.710938c-.097656 3.699218-1.558594 8.097656-8 8.097656s-7.902344-4.398438-8-8.097656v-8.710938c2.585938.527344 5.265625.808594 8 .808594zm296 7.902344c-.097656 3.699218-1.558594 8.097656-8 8.097656s-7.902344-4.398438-8-8.097656v-8.710938c2.585938.527344 5.265625.808594 8 .808594s5.414062-.28125 8-.808594zm-296-183.902344v80c-5.695312 0-11.089844 1.230469-16 3.390625v-83.390625zm-88-24h16v144h-16zm11.566406 160h36.433594c0 13.015625 6.34375 24.488281 16 31.792969v10.167969l-32.792969 9.367187c-13.664062 3.902344-23.207031 16.558594-23.207031 30.777344v50.214843c-5.199219-19.398437-8-39.632812-8-60.320312 0-24.65625 4-48.816406 11.566406-72zm44.433594 223.070312v-63.070312h24v87.191406c-8.625-7.480468-16.632812-15.542968-24-24.121094zm40 36.921876v-99.992188h24v2.222656c-4.761719 2.777344-8 7.882813-8 13.777344v94.519531c-5.496094-3.320312-10.847656-6.808593-16-10.527343zm32 44.007812v-60.449219c4.726562 2.753907 10.144531 4.449219 16 4.449219h56v16h64v-16h56c5.855469 0 11.28125-1.695312 16.007812-4.457031v60.457031zm224-88v-40c0-5.894531-3.238281-11-8-13.777344v-2.222656h24v99.992188c-5.152344 3.71875-10.503906 7.207031-16 10.527343zm32 31.191406v-87.191406h24v63.070312c-7.367188 8.578126-15.375 16.640626-24 24.121094zm80-175.191406c0 20.6875-2.800781 40.921875-8 60.320312v-50.214843c0-14.21875-9.542969-26.867188-23.207031-30.769531l-32.792969-9.367188v-10.167969c9.65625-7.3125 16-18.785156 16-31.792969v-16c0-.480468-.128906-.9375-.144531-1.414062 3.34375-1.128906 6.625-2.402344 9.769531-3.992188l14.535156 9.6875 5.886719-5.890624c11.90625 28.34375 17.953125 58.425781 17.953125 89.601562zm-13.96875-150.433594-1.238281 4.890625c-1.386719 5.464844-3.546875 10.664063-6.410157 15.480469l-2.582031 4.335938 7.902344 11.855468-9.582031 9.582032-11.855469-7.902344-4.335937 2.582031c-3.128907 1.867187-6.472657 3.3125-9.90625 4.554687-2.984376-6.273437-7.488282-11.671874-13.128907-15.640624 18.769531-3.296876 33.105469-19.617188 33.105469-39.304688 0-22.054688-17.945312-40-40-40s-40 17.945312-40 40c0 13.527344 6.785156 25.457031 17.097656 32.695312-11.632812 2.039063-21.457031 9.121094-27.3125 18.90625l-5.480468-5.480468 7.902343-11.855469-2.582031-4.335937c-2.863281-4.808594-5.015625-10.019532-6.410156-15.480469l-1.238282-4.890625-13.976562-2.78125v-13.546875l13.96875-2.796875 1.238281-4.890625c1.386719-5.464844 3.546875-10.664063 6.410157-15.480469l2.582031-4.335938-7.902344-11.855468 9.582031-9.582032 11.855469 7.902344 4.335937-2.582031c4.808594-2.867187 10.019532-5.015625 15.480469-6.410156l4.890625-1.238281 2.78125-13.960938h13.546875l2.796875 13.96875 4.890625 1.238281c5.464844 1.386719 10.664063 3.546875 15.480469 6.410157l4.335938 2.582031 11.855468-7.902344 9.582032 9.582031-7.902344 11.855469 2.582031 4.335937c2.867187 4.808594 5.015625 10.019532 6.410156 15.480469l1.238281 4.890625 13.960938 2.78125v13.546875zm0 0"/></svg>